<?xml version="1.0" encoding="utf-8"?>
<!-- Generator: Adobe Illustrator 20.1.0, SVG Export Plug-In . SVG Version: 6.00 Build 0)  -->
<svg version="1.1" id="Layer_1" xmlns="http://www.w3.org/2000/svg" xmlns:xlink="http://www.w3.org/1999/xlink" x="0px" y="0px"
	 viewBox="0 0 612 792" style="enable-background:new 0 0 612 792;" xml:space="preserve">
<style type="text/css">
	.st0{fill:#EF4137;}
</style>
<path class="st0" d="M326,412.6l-9.6-9.6c0.8-1,1.4-2.2,1.9-3.4c3.6-8.6-0.4-18.5-9-22.1c-2.1-0.9-4.3-1.3-6.6-1.3l0,0
	c-9.3,0-16.8,7.5-16.8,16.9c0,6.8,4.1,12.9,10.3,15.5c5.8,2.4,12.1,1.4,16.8-2.2l9.5,9.5L326,412.6z M290.8,393.1
	c0-6.7,5.4-12.1,12.1-12.1c6.7,0,12.1,5.4,12.1,12.1s-5.4,12.1-12.1,12.1C296.2,405.2,290.8,399.8,290.8,393.1z"/>
</svg>
